<svg xmlns="http://www.w3.org/2000/svg" viewBox="0 0 120 120" role="img" aria-label="Amoora favicon">
  <defs>
    <linearGradient id="g" x1="0%" y1="0%" x2="100%" y2="100%">
      <stop offset="0%" stop-color="#EA7056"/>
      <stop offset="100%" stop-color="#FFB28A"/>
    </linearGradient>
  </defs>
  <rect width="120" height="120" rx="28" fill="url(#g)"/>
  <path d="M36 42h48a6 6 0 0 1 6 6v24a6 6 0 0 1-6 6H36a6 6 0 0 1-6-6V48a6 6 0 0 1 6-6Z" fill="#fff" opacity="0.92"/>
  <path d="M54 60h12a6 6 0 0 1 0 12H54a6 6 0 0 1 0-12Z" fill="#EA7056"/>
  <circle cx="60" cy="54" r="6" fill="#EA7056"/>
</svg>
